<?xml version="1.0" standalone="no"?>
<!DOCTYPE svg PUBLIC "-//W3C//DTD SVG 20010904//EN"
 "http://www.w3.org/TR/2001/REC-SVG-20010904/DTD/svg10.dtd">
<svg version="1.0" xmlns="http://www.w3.org/2000/svg"
 width="410.000000pt" height="609.000000pt" viewBox="0 0 410.000000 609.000000"
 preserveAspectRatio="xMidYMid meet">

<g transform="translate(0.000000,609.000000) scale(0.100000,-0.100000)"
fill="#000000" stroke="none">
<path d="M1918 5485 c-2 -1 -28 -6 -58 -9 -142 -17 -215 -57 -366 -202 -62
-61 -123 -145 -151 -211 -20 -49 -32 -219 -13 -208 9 6 10 3 1 -13 -6 -11 -11
-24 -11 -28 0 -12 41 39 57 71 9 17 19 32 23 35 11 7 47 69 65 110 9 19 20 43
25 52 6 10 10 26 10 35 0 10 4 24 9 32 8 12 12 12 25 2 8 -7 20 -10 25 -7 5 4
12 2 16 -4 4 -6 15 -4 31 7 19 12 28 13 37 4 15 -15 27 -14 27 3 0 18 20 25
45 16 11 -4 30 -4 42 1 17 6 21 5 17 -6 -4 -10 0 -12 15 -8 12 3 21 1 21 -6 0
-14 47 -15 52 0 4 12 96 19 100 7 2 -5 23 -9 48 -9 59 -1 172 -19 187 -31 7
-5 13 -4 15 3 6 17 38 20 38 3 0 -8 6 -14 13 -14 17 0 58 -76 51 -94 -3 -8 3
-20 14 -27 10 -8 22 -27 26 -42 3 -15 11 -25 16 -22 6 3 10 -2 10 -11 0 -10 3
-14 7 -11 3 4 15 0 25 -10 17 -15 19 -15 31 0 11 16 13 16 25 -3 7 -12 8 -20
2 -20 -5 0 -10 5 -10 12 0 6 -3 8 -6 5 -4 -4 -1 -13 6 -22 10 -12 10 -15 -1
-15 -10 0 -10 -3 -1 -12 17 -17 15 -31 -4 -24 -14 5 -15 4 -5 -8 11 -13 0 -66
-15 -66 -3 0 -4 6 -1 14 3 8 -1 20 -8 26 -12 10 -17 7 -25 -16 -9 -23 -13 -25
-21 -14 -7 12 -11 13 -18 2 -6 -10 -10 -6 -16 15 -7 26 -8 26 -15 8 -5 -11 -9
-14 -9 -7 -1 6 -10 12 -21 12 -11 0 -20 4 -20 8 0 10 -90 -1 -142 -17 -21 -7
-38 -16 -38 -21 0 -6 -17 -10 -38 -10 -39 0 -62 -16 -76 -54 -7 -21 3 -20 156
16 70 16 91 18 103 8 8 -6 18 -10 22 -7 4 2 15 -4 24 -13 15 -16 13 -18 -32
-29 -26 -7 -58 -12 -71 -11 -38 3 -94 -2 -75 -7 28 -7 20 -21 -20 -34 -21 -6
-51 -21 -66 -32 -26 -18 -30 -18 -45 -3 -15 14 -14 18 13 47 l30 31 -34 -17
c-18 -9 -35 -25 -38 -35 -3 -10 -11 -21 -19 -24 -16 -6 -19 -62 -4 -71 8 -5 7
-12 -2 -23 -10 -12 -10 -16 0 -19 6 -3 12 -11 12 -19 0 -8 5 -14 10 -14 6 0
10 -6 10 -14 0 -12 68 -56 86 -56 8 0 -47 74 -58 78 -4 2 -8 9 -8 15 0 6 -7
18 -15 27 -14 15 -11 16 33 10 26 -4 60 -12 75 -19 39 -15 46 -14 19 5 -12 8
-19 21 -16 27 4 7 4 9 0 5 -10 -8 -47 23 -40 33 3 5 19 6 37 4 l32 -5 -32 10
c-18 6 -33 13 -33 16 0 6 65 34 81 34 9 0 9 -3 0 -14 -13 -15 -6 -42 12 -49 7
-2 24 -3 39 -3 14 1 26 -3 25 -8 -1 -6 22 -14 51 -19 28 -5 52 -12 52 -17 0
-5 24 -13 52 -20 46 -9 54 -9 65 7 7 9 13 23 13 30 0 7 3 13 8 13 4 0 8 -19 8
-42 0 -24 4 -54 8 -68 6 -19 5 -21 -3 -10 -9 12 -11 11 -11 -8 0 -13 4 -32 10
-42 9 -17 7 -18 -19 -10 -29 8 -67 -3 -40 -12 8 -3 10 -11 5 -24 -8 -19 -8
-19 -16 1 -7 19 -7 19 -15 -5 -5 -16 -4 -25 4 -28 9 -3 9 -8 -1 -20 -11 -13
-10 -14 15 -8 23 5 29 3 37 -19 13 -34 13 -35 -4 -29 -7 3 -16 -2 -19 -10 -4
-10 -1 -16 8 -16 8 0 15 -4 15 -9 0 -5 -10 -8 -23 -7 -17 2 -23 -2 -24 -18 -1
-12 1 -15 4 -8 3 6 11 12 20 12 12 0 12 -3 -2 -16 -11 -12 -13 -20 -6 -27 6
-6 11 -16 11 -22 0 -5 -4 -4 -9 4 -7 11 -12 10 -22 -8 -8 -11 -19 -21 -26 -21
-7 0 -13 -6 -13 -13 0 -8 -9 -22 -19 -31 -15 -13 -20 -14 -25 -4 -3 7 -4 4 -1
-7 2 -11 0 -27 -6 -35 -9 -13 -10 -12 -5 3 7 23 -6 22 -22 -3 -13 -22 -48 -29
-37 -7 4 6 -1 3 -9 -7 -9 -11 -16 -24 -16 -30 0 -5 -3 -7 -6 -3 -8 8 -34 -18
-34 -34 0 -7 -3 -10 -6 -6 -3 3 -17 -7 -31 -23 -13 -16 -27 -29 -31 -28 -13 2
-72 -14 -76 -21 -2 -3 -25 -5 -50 -3 -33 3 -46 8 -46 19 0 12 -7 14 -32 8 -18
-4 -40 -8 -48 -10 -8 -1 -23 -5 -32 -9 -40 -14 -49 -15 -43 -6 9 15 -18 12
-39 -3 -17 -12 -23 -10 -57 21 -21 20 -36 39 -33 44 3 4 -4 8 -15 8 -11 0 -28
11 -37 25 -9 14 -25 30 -34 35 -14 8 -16 5 -12 -15 4 -21 1 -23 -19 -18 -28 7
-50 33 -44 49 5 16 -41 24 -54 11 -7 -7 -11 -7 -11 -1 0 5 5 15 12 22 9 9 9
12 0 12 -7 0 -12 6 -12 14 0 8 -5 16 -11 18 -6 2 -12 16 -12 31 -1 15 -5 27
-9 27 -5 0 -8 10 -9 23 0 12 -7 38 -14 57 l-13 35 2 -50 c1 -27 12 -84 25
-125 12 -41 29 -100 38 -130 9 -30 22 -64 30 -75 7 -11 13 -27 13 -37 0 -9 10
-24 22 -32 26 -19 28 -67 4 -113 -14 -28 -23 -76 -25 -129 -1 -16 -19 -30 -77
-58 -41 -20 -105 -54 -142 -77 -83 -50 -231 -122 -426 -206 -207 -89 -221 -97
-255 -147 -17 -24 -53 -63 -81 -86 -102 -85 -202 -258 -225 -386 -8 -44 -17
-142 -21 -219 -3 -77 -12 -162 -19 -190 -7 -27 -16 -81 -19 -118 -4 -37 -16
-92 -27 -122 -14 -37 -19 -74 -18 -117 1 -35 -3 -74 -10 -86 -7 -13 -10 -28
-8 -35 3 -7 9 -1 15 13 27 68 112 103 293 121 107 11 139 10 234 -4 149 -22
292 -69 344 -114 l41 -35 0 -86 c0 -133 -42 -339 -72 -358 -7 -4 -8 -3 -4 4 4
8 0 12 -11 12 -10 0 -31 7 -47 15 -39 21 -43 19 -13 -5 65 -51 137 -73 262
-79 66 -4 126 -10 133 -15 14 -8 347 -10 361 -2 5 3 41 6 81 7 l72 2 -6 51
c-3 28 -6 77 -6 109 0 53 -1 57 -24 57 -22 0 -24 5 -31 74 -11 118 -4 123 157
127 l98 3 6 35 c10 66 37 132 51 127 7 -3 13 2 13 10 0 8 -4 12 -10 9 -12 -7
-12 19 0 55 7 22 8 22 10 5 1 -11 2 -26 1 -34 -2 -7 2 -10 8 -7 13 8 13 -121
1 -164 l-9 -30 88 0 c87 0 89 0 99 -27 17 -46 25 -142 12 -158 -6 -7 -7 -16
-3 -18 5 -3 7 -24 5 -47 -5 -48 -14 -45 -19 7 -4 37 -9 50 -17 42 -2 -2 -1
-47 3 -99 l6 -95 50 3 c52 3 179 26 375 67 198 41 282 55 372 62 83 6 86 7 91
31 3 14 1 37 -5 51 -26 70 -48 220 -48 330 1 170 26 216 147 261 89 33 189 43
326 31 199 -17 346 -69 417 -148 19 -21 28 -32 20 -26 -7 7 -16 13 -19 13 -10
0 -7 -55 2 -61 5 -4 3 -15 -4 -26 -9 -15 -9 -28 -1 -51 7 -21 7 -43 1 -65 -6
-22 -6 -44 0 -60 7 -17 6 -43 -3 -79 -13 -55 -11 -78 8 -90 7 -4 4 -9 -6 -13
-9 -4 -14 -13 -12 -20 3 -8 -2 -30 -11 -50 -11 -21 -18 -64 -19 -105 -2 -42
-8 -75 -17 -86 -11 -14 -11 -16 0 -10 10 6 12 4 8 -10 -21 -73 -11 -72 13 1
70 209 105 486 103 810 -1 250 -37 710 -61 795 -37 126 -121 260 -219 351 -26
24 -60 60 -75 80 -16 22 -41 42 -63 49 -20 7 -74 29 -120 51 -46 21 -163 67
-262 103 -98 36 -218 81 -268 102 -132 54 -186 74 -225 86 -48 14 -55 23 -79
105 -22 72 -66 133 -97 133 -8 0 -17 0 -20 0 -4 0 -7 -30 -8 -68 -1 -53 -7
-77 -28 -113 -30 -52 -232 -249 -300 -294 -24 -15 -63 -41 -87 -57 -53 -36
-70 -34 -191 20 -168 75 -315 191 -368 290 -40 75 -44 111 -7 68 14 -17 35
-30 47 -31 12 -1 24 -7 26 -13 2 -7 12 -12 22 -12 10 0 45 -13 77 -30 31 -16
71 -30 87 -30 16 0 46 -5 67 -11 31 -10 40 -9 53 4 16 16 96 22 96 7 0 -4 36
5 81 21 60 21 80 25 76 14 -4 -9 -1 -12 8 -8 8 3 13 9 10 13 -7 11 35 41 47
34 7 -5 19 2 56 36 10 8 32 26 50 38 18 13 30 28 27 33 -4 5 3 9 14 9 12 0 21
7 21 16 0 8 4 13 9 9 5 -3 13 0 17 6 5 8 3 9 -6 4 -10 -6 -12 -4 -6 11 5 10
13 32 18 47 8 21 15 26 29 22 21 -7 25 5 7 23 -7 7 -8 12 -2 12 14 0 32 110
39 240 4 58 10 109 16 115 5 5 9 23 9 40 0 29 2 31 36 30 33 -2 38 2 54 39 18
42 50 201 50 247 0 14 -9 34 -20 44 -18 16 -26 17 -72 7 -28 -7 -53 -10 -55
-8 -3 3 2 35 10 73 29 128 40 258 27 321 -15 73 -60 172 -101 224 -79 99 -270
219 -394 247 -48 11 -151 22 -157 16z m429 -381 c-3 -3 -12 -4 -19 -1 -8 3 -5
6 6 6 11 1 17 -2 13 -5z m126 -108 c4 -10 1 -13 -9 -9 -15 6 -19 23 -5 23 5 0
11 -7 14 -14z m10 -216 c-3 -11 -7 -20 -9 -20 -2 0 -4 9 -4 20 0 11 4 20 9 20
5 0 7 -9 4 -20z m-3 -40 c0 -5 -4 -10 -10 -10 -5 0 -10 -8 -11 -17 0 -11 -2
-13 -6 -5 -3 7 -2 19 1 27 6 17 26 20 26 5z m-74 -205 c3 -29 1 -36 -6 -25 -5
8 -10 22 -10 31 0 9 -7 22 -15 29 -11 9 -12 17 -3 33 11 21 11 21 21 -3 5 -14
11 -43 13 -65z m-172 56 c18 -7 18 -8 -5 -24 -13 -9 -31 -17 -40 -17 -15 0
-15 4 -6 25 13 26 20 28 51 16z m347 -48 c2 -37 6 -60 23 -107 19 -54 17 -61
-13 -51 -14 4 -23 18 -27 43 -4 20 -15 44 -26 53 -25 22 -24 59 2 59 11 0 20
5 20 10 0 18 20 11 21 -7z m79 -27 c0 -14 -4 -28 -10 -31 -6 -4 -10 7 -10 24
0 17 5 31 10 31 6 0 10 -11 10 -24z m-50 -190 c0 -3 -4 -8 -10 -11 -5 -3 -10
-1 -10 4 0 6 5 11 10 11 6 0 10 -2 10 -4z m-34 -44 c-4 -3 -11 0 -16 8 -15 24
-11 33 6 15 9 -9 13 -19 10 -23z m-442 -446 c-3 -9 -10 -16 -15 -16 -5 0 -4 9
3 20 14 22 21 20 12 -4z m-26 -688 c28 -28 1 -75 -36 -63 -23 7 -33 36 -20 59
11 19 39 21 56 4z m-557 -103 c5 4 9 2 9 -4 0 -5 -4 -12 -9 -15 -9 -6 -22 17
-20 37 1 7 3 4 6 -6 2 -9 9 -15 14 -12z m902 -365 c7 -8 2 -7 -10 3 -14 12
-19 25 -15 35 5 15 7 14 10 -3 2 -11 9 -27 15 -35z m403 29 c3 -6 19 -9 35 -7
15 3 26 1 23 -3 -2 -4 0 -10 6 -14 5 -3 10 -18 10 -32 0 -22 -4 -25 -25 -21
-33 7 -43 -11 -18 -31 27 -21 38 -87 16 -100 -9 -4 -24 -6 -33 -4 -22 6 -34
57 -20 83 15 28 13 29 -25 25 l-34 -5 3 38 c2 21 11 48 22 60 21 25 30 27 40
11z m-326 -40 c0 -11 7 -22 15 -25 10 -4 15 -20 15 -44 0 -34 2 -37 21 -33 19
5 20 2 17 -42 -2 -30 -8 -50 -17 -53 -11 -4 -13 4 -7 37 3 24 2 41 -3 41 -6 0
-11 -17 -13 -37 -5 -58 -28 -54 -28 4 0 43 -3 49 -22 50 -12 1 -30 -5 -39 -13
-10 -9 -19 -11 -23 -5 -4 5 2 12 13 16 23 7 34 63 17 85 -9 13 -9 13 6 2 23
-19 36 -8 30 24 -3 19 -1 25 7 20 6 -4 11 -16 11 -27z m296 -125 c8 -52 1 -62
-49 -73 -48 -11 -59 -2 -55 50 4 53 21 54 29 2 l5 -38 5 39 c5 53 27 59 32 9
3 -36 4 -35 5 10 2 60 19 61 28 1z m128 -4 c-5 -34 -3 -50 5 -50 6 0 11 17 11
40 0 29 4 40 15 40 12 0 13 -9 8 -45 -4 -29 -2 -45 5 -45 6 0 12 19 14 42 5
63 28 62 28 -1 0 -59 -8 -65 -65 -53 -35 7 -40 12 -43 38 -3 30 12 84 23 84 3
0 3 -22 -1 -50z m144 -28 l-1 -57 -7 45 -7 45 -1 -47 c-1 -27 -6 -48 -12 -48
-14 0 -13 103 2 118 20 20 28 3 26 -56z m-2424 49 c3 -5 -1 -11 -9 -14 -9 -4
-12 -1 -8 9 6 16 10 17 17 5z m1175 -31 c5 -17 6 -28 2 -25 -5 3 -14 19 -20
35 -5 17 -6 28 -2 25 5 -3 14 -19 20 -35z m845 24 c8 -21 7 -67 -2 -79 -11
-16 -54 -11 -66 8 -14 21 4 53 28 49 9 -2 16 2 16 8 0 5 -9 10 -20 10 -11 0
-20 5 -20 10 0 17 57 12 64 -6z m-2205 -51 c6 -10 11 -15 11 -10 0 4 13 1 30
-8 19 -10 27 -20 23 -31 -6 -17 -29 -13 -25 5 1 7 -1 10 -6 7 -5 -3 -22 8 -37
24 -16 17 -24 30 -17 30 6 0 16 -8 21 -17z m122 -30 c10 -12 5 -11 -18 6 -18
12 -33 24 -33 27 0 9 37 -15 51 -33z m109 22 c0 -12 -19 -12 -23 0 -4 9 -1 12
9 8 7 -3 14 -7 14 -8z m1430 5 c0 -5 -2 -10 -4 -10 -3 0 -8 5 -11 10 -3 6 -1
10 4 10 6 0 11 -4 11 -10z m-1393 -16 c-3 -3 -12 -4 -19 -1 -8 3 -5 6 6 6 11
1 17 -2 13 -5z m1171 -19 c18 -38 102 -315 102 -333 0 -26 -72 110 -120 225
-35 84 -40 106 -30 118 18 22 35 18 48 -10z m-1288 -59 c0 -5 -9 -1 -19 8 -11
10 -25 15 -30 11 -6 -3 -11 1 -11 10 0 15 3 14 30 -2 17 -9 30 -22 30 -27z
m-250 4 c-24 -15 -36 -11 -14 4 10 8 21 12 24 10 2 -3 -2 -9 -10 -14z m46 -20
c3 0 4 7 0 15 -6 17 -4 18 18 9 8 -3 12 -12 10 -19 -4 -8 3 -15 18 -17 13 -2
21 -7 20 -12 -2 -5 0 -12 5 -15 4 -3 14 -13 21 -23 12 -14 10 -15 -21 -8 -25
5 -34 4 -34 -6 0 -8 6 -14 14 -14 18 0 17 -15 -3 -34 -8 -9 -11 -16 -6 -16 6
0 18 -3 28 -7 12 -4 15 -3 10 5 -4 7 -3 12 2 12 16 0 20 -24 6 -37 -10 -10
-25 -3 -73 33 -63 47 -83 68 -57 58 9 -3 16 -1 16 5 0 6 8 12 18 12 16 1 16 2
-1 6 -9 2 -15 9 -12 14 4 5 -1 9 -9 9 -9 0 -16 -4 -16 -10 0 -5 -5 -10 -12
-10 -6 0 -1 12 13 28 13 15 17 21 9 15 -17 -15 -30 -17 -30 -4 0 5 9 13 20 16
11 3 20 14 21 23 0 12 3 11 9 -5 5 -13 12 -23 16 -23z m1763 -21 c-6 -30 -12
-61 -13 -69 -1 -9 -6 -21 -10 -28 -4 -7 -9 -37 -11 -66 -2 -32 -16 -80 -34
-119 -32 -72 -43 -84 -36 -39 18 116 29 162 37 162 5 0 7 4 3 9 -3 5 -1 12 5
16 6 4 8 10 5 15 -6 9 55 184 61 177 2 -2 -1 -28 -7 -58z m-1609 -43 c0 -3 -4
-8 -10 -11 -5 -3 -10 -1 -10 4 0 6 5 11 10 11 6 0 10 -2 10 -4z m-295 -16 c3
-5 1 -10 -4 -10 -6 0 -11 5 -11 10 0 6 2 10 4 10 3 0 8 -4 11 -10z m25 -30 c0
-5 -8 -10 -17 -10 -15 0 -16 2 -3 10 19 12 20 12 20 0z m245 -20 c-3 -5 -12
-10 -18 -10 -7 0 -6 4 3 10 19 12 23 12 15 0z m-225 -10 c0 -5 -2 -10 -4 -10
-3 0 -8 5 -11 10 -3 6 -1 10 4 10 6 0 11 -4 11 -10z m90 -25 c11 -13 10 -14
-4 -9 -9 3 -16 10 -16 15 0 13 6 11 20 -6z m174 -11 c3 -8 2 -12 -4 -9 -6 3
-10 10 -10 16 0 14 7 11 14 -7z m-195 -43 c-7 -2 -15 1 -17 7 -2 6 -11 8 -20
5 -14 -6 -15 -5 -2 9 14 15 17 15 33 0 14 -12 15 -18 6 -21z m56 -28 c18 -11
17 -12 -10 -8 -16 2 -43 4 -60 4 -21 1 -26 4 -16 10 18 11 61 8 86 -6z m70
-52 c4 -10 -1 -12 -20 -9 -13 3 -22 1 -19 -3 6 -11 -7 -11 -58 -3 -21 4 -35
11 -32 16 3 5 22 6 41 2 23 -4 34 -3 30 3 -4 6 6 10 23 9 16 -1 32 -7 35 -15z
m-101 -66 c15 -11 16 -15 5 -15 -8 0 -24 7 -35 15 -14 11 -15 14 -4 14 8 0 24
-6 34 -14z m281 -33 c-3 -3 -11 0 -18 7 -9 10 -8 11 6 5 10 -3 15 -9 12 -12z
m-225 -4 c0 -5 -6 -8 -12 -7 -7 1 -30 -1 -50 -5 -36 -8 -63 -2 -54 12 6 11
116 11 116 0z m1603 -12 c12 -10 17 -27 17 -65 0 -55 -8 -61 -51 -38 -21 10
-24 18 -21 57 4 57 21 71 55 46z m-1740 -3 c-7 -2 -19 -2 -25 0 -7 3 -2 5 12
5 14 0 19 -2 13 -5z m1722 -143 c-3 -5 -12 -10 -18 -10 -7 0 -6 4 3 10 19 12
23 12 15 0z m-1798 -6 c-3 -3 -12 -4 -19 -1 -8 3 -5 6 6 6 11 1 17 -2 13 -5z
m1497 -520 c8 -21 8 -109 0 -101 -4 3 -8 27 -10 52 -2 25 -6 50 -9 56 -4 5 -2
9 3 9 6 0 13 -7 16 -16z"/>
<path d="M2544 4509 c-3 -6 -2 -15 4 -21 6 -6 11 -2 15 11 5 22 -7 29 -19 10z"/>
<path d="M2071 3137 c-15 -15 -14 -34 4 -41 12 -4 35 20 35 37 0 11 -29 14
-39 4z"/>
<path d="M2840 2660 c0 -5 4 -10 9 -10 6 0 13 5 16 10 3 6 -1 10 -9 10 -9 0
-16 -4 -16 -10z"/>
<path d="M2876 2572 c-6 -10 -2 -39 7 -48 4 -4 7 7 7 24 0 32 -4 39 -14 24z"/>
<path d="M2500 2615 c-22 -27 12 -49 38 -23 8 8 9 15 1 25 -15 17 -24 16 -39
-2z"/>
<path d="M2650 2500 c0 -5 5 -10 10 -10 6 0 10 5 10 10 0 6 -4 10 -10 10 -5 0
-10 -4 -10 -10z"/>
<path d="M2340 4809 c0 -5 5 -7 10 -4 6 3 10 8 10 11 0 2 -4 4 -10 4 -5 0 -10
-5 -10 -11z"/>
<path d="M1322 4780 c0 -14 2 -19 5 -12 2 6 2 18 0 25 -3 6 -5 1 -5 -13z"/>
<path d="M1457 4732 c-9 -2 -15 -8 -12 -13 4 -5 -1 -9 -9 -9 -9 0 -16 -5 -16
-11 0 -7 7 -8 18 -4 29 13 79 18 63 7 -11 -8 -10 -11 5 -15 65 -18 224 -32
224 -19 0 19 -29 33 -106 48 -85 16 -139 21 -167 16z"/>
<path d="M2039 4629 c-19 -16 -20 -18 -4 -10 34 17 51 31 39 31 -7 0 -22 -9
-35 -21z"/>
<path d="M1570 4619 c-25 -4 -73 -10 -108 -13 -35 -3 -67 -8 -73 -11 -20 -13
-7 -37 38 -65 37 -24 57 -30 97 -29 28 1 42 3 31 6 -11 2 -33 9 -49 15 l-29
12 23 18 c29 24 35 23 48 -7 8 -17 16 -23 28 -18 13 5 15 3 9 -7 -6 -10 1 -12
33 -7 24 3 40 1 36 -4 -3 -5 -1 -9 5 -9 5 0 13 5 16 10 5 8 11 7 21 -1 11 -9
17 -9 29 1 17 14 20 40 5 40 -5 0 -10 -3 -10 -7 0 -5 -20 -9 -45 -11 -45 -3
-52 2 -37 25 5 8 13 9 22 3 39 -25 54 2 23 38 -22 26 -55 32 -113 21z m10 -53
c0 -3 -4 -8 -10 -11 -5 -3 -10 -1 -10 4 0 6 5 11 10 11 6 0 10 -2 10 -4z"/>
<path d="M2056 4365 c-3 -9 -6 -27 -6 -39 0 -13 -9 -31 -20 -41 -33 -30 -23
-36 20 -14 49 26 62 61 33 91 -18 18 -21 18 -27 3z"/>
<path d="M1304 4323 c-12 -4 -8 -31 14 -98 l10 -30 1 30 c0 50 -13 102 -25 98z"/>
<path d="M1690 4320 c-13 -9 -13 -11 0 -20 15 -10 90 -14 90 -5 0 6 -56 35
-67 35 -4 0 -15 -5 -23 -10z"/>
<path d="M1898 4309 c-21 -11 -38 -27 -38 -35 0 -12 4 -14 13 -7 6 6 26 13 42
17 46 10 85 27 85 37 0 16 -64 9 -102 -12z"/>
<path d="M1888 4263 c15 -6 16 -43 1 -43 -6 0 -9 -5 -7 -11 5 -16 116 -59 133
-52 21 7 18 21 -5 28 -11 4 -28 18 -37 32 -15 23 -69 54 -90 52 -4 0 -2 -3 5
-6z"/>
<path d="M2330 4230 c0 -5 5 -10 10 -10 6 0 10 5 10 10 0 6 -4 10 -10 10 -5 0
-10 -4 -10 -10z"/>
<path d="M1745 4220 c-11 -5 -16 -9 -11 -9 4 -1 -2 -9 -15 -19 -15 -13 -19
-21 -11 -26 7 -4 12 -2 12 3 0 6 7 11 15 11 8 0 15 4 15 9 0 4 12 7 28 4 26
-3 26 -3 4 7 -13 5 -20 14 -17 20 7 12 7 12 -20 0z"/>
<path d="M2350 4211 c-8 -6 -18 -7 -22 -5 -4 3 -8 -2 -8 -10 0 -18 16 -21 25
-6 5 8 12 7 23 -2 13 -11 14 -11 8 1 -5 8 -3 17 5 22 12 7 11 9 -1 9 -8 0 -22
-4 -30 -9z"/>
<path d="M1785 4170 c3 -5 15 -10 25 -10 10 0 22 5 25 10 4 6 -7 10 -25 10
-18 0 -29 -4 -25 -10z"/>
<path d="M1675 4160 c-3 -5 -1 -10 4 -10 6 0 11 5 11 10 0 6 -2 10 -4 10 -3 0
-8 -4 -11 -10z"/>
<path d="M1640 4135 c-10 -12 -10 -15 4 -15 9 0 16 7 16 15 0 8 -2 15 -4 15
-2 0 -9 -7 -16 -15z"/>
<path d="M2038 4143 c12 -2 22 -9 22 -14 0 -6 5 -7 10 -4 6 3 10 2 10 -2 0 -5
16 -16 35 -25 31 -14 35 -14 35 0 0 8 -3 12 -6 9 -4 -4 -15 3 -25 15 -11 11
-19 17 -19 13 0 -5 -5 -4 -12 3 -7 7 -26 11 -42 11 -24 -1 -26 -3 -8 -6z"/>
<path d="M2340 4084 c0 -14 4 -23 9 -20 5 3 7 15 4 26 -7 28 -13 25 -13 -6z"/>
<path d="M2058 4085 c-3 -3 -20 -7 -38 -10 -52 -6 -48 -15 8 -15 29 0 52 -3
52 -6 0 -3 -10 -14 -22 -25 -28 -23 -12 -24 30 -3 37 18 42 49 10 58 -29 7
-33 7 -40 1z"/>
<path d="M1596 4041 c-3 -5 7 -14 23 -19 24 -8 29 -8 25 3 -3 7 3 15 13 18 10
3 1 5 -19 6 -20 0 -39 -3 -42 -8z"/>
<path d="M2253 4036 c11 -8 25 -12 33 -9 18 7 16 9 -21 17 -28 6 -29 5 -12 -8z"/>
<path d="M1560 4033 c0 -5 5 -15 10 -23 8 -12 10 -11 10 8 0 12 -4 22 -10 22
-5 0 -10 -3 -10 -7z"/>
<path d="M2236 4011 c-4 -7 -5 -15 -2 -18 9 -9 19 4 14 18 -4 11 -6 11 -12 0z"/>
<path d="M1845 3941 c-68 -6 -83 -20 -17 -16 17 1 50 2 73 3 24 1 38 6 34 12
-3 6 -9 9 -13 8 -4 -1 -38 -4 -77 -7z"/>
<path d="M2501 3874 c0 -11 3 -14 6 -6 3 7 2 16 -1 19 -3 4 -6 -2 -5 -13z"/>
<path d="M65 1487 c-9 -42 -15 -86 -12 -99 4 -19 5 -18 6 7 1 17 8 59 16 94 9
35 13 66 11 68 -2 3 -12 -29 -21 -70z"/>
<path d="M1965 1530 c-3 -5 1 -10 9 -10 9 0 16 5 16 10 0 6 -4 10 -9 10 -6 0
-13 -4 -16 -10z"/>
<path d="M2055 1530 c-3 -5 3 -10 14 -10 12 0 21 -5 21 -11 0 -6 -7 -9 -14 -6
-10 4 -13 1 -10 -8 4 -9 -4 -16 -23 -20 -50 -12 -49 -13 14 -13 61 0 62 0 53
23 -6 16 -6 27 1 31 8 4 7 9 -2 15 -19 12 -46 11 -54 -1z"/>
<path d="M2132 1533 c0 -5 -2 -16 -7 -26 -4 -10 -4 -21 -1 -24 4 -4 9 3 13 15
6 24 22 30 24 10 1 -7 2 -20 3 -28 0 -8 7 -15 14 -14 6 1 21 2 32 3 16 1 20 8
20 36 0 28 -4 35 -20 35 -14 0 -20 -7 -20 -24 0 -13 6 -27 13 -29 8 -4 7 -6
-3 -6 -9 -1 -21 13 -27 29 -6 17 -18 30 -27 30 -9 0 -15 -3 -14 -7z"/>
<path d="M1833 1518 c-20 -7 -36 -20 -42 -37 -5 -14 -10 -19 -10 -11 -1 13 -2
13 -11 0 -16 -24 -12 -30 19 -30 28 0 47 22 36 40 -8 13 21 31 39 24 9 -3 16
-10 16 -15 0 -5 4 -9 9 -9 4 0 6 11 3 25 -5 27 -10 28 -59 13z"/>
<path d="M1907 1503 c3 -10 10 -23 14 -29 5 -6 6 -14 2 -17 -3 -4 8 -7 26 -7
19 0 30 4 26 10 -3 6 -12 10 -19 10 -8 0 -19 7 -27 16 -10 13 -10 17 2 25 11
7 9 9 -8 9 -17 0 -21 -4 -16 -17z"/>
<path d="M1947 1503 c-17 -16 -4 -23 42 -23 28 0 52 4 55 9 3 4 -5 6 -18 4
-13 -3 -27 0 -30 6 -8 12 -39 15 -49 4z"/>
<path d="M1840 1480 c0 -5 5 -10 10 -10 6 0 10 5 10 10 0 6 -4 10 -10 10 -5 0
-10 -4 -10 -10z"/>
<path d="M2015 1409 c-156 -12 -179 -16 -107 -17 38 -1 62 -6 62 -13 0 -6 -9
-9 -20 -6 -11 3 -23 1 -26 -4 -3 -5 31 -9 78 -8 46 0 78 3 71 5 -7 3 -9 12 -6
20 3 9 21 14 52 15 25 0 64 4 86 8 38 8 37 9 -20 8 -33 0 -109 -4 -170 -8z
m30 -29 c3 -6 -4 -10 -17 -10 -18 0 -20 2 -8 10 19 12 18 12 25 0z"/>
<path d="M1788 1393 c6 -2 18 -2 25 0 6 3 1 5 -13 5 -14 0 -19 -2 -12 -5z"/>
<path d="M2087 1374 c6 -16 34 -16 40 1 2 6 -8 12 -22 13 -18 1 -23 -2 -18
-14z"/>
<path d="M2145 1379 c-4 -6 -5 -12 -2 -15 2 -3 7 2 10 11 7 17 1 20 -8 4z"/>
<path d="M2200 1368 c0 -11 12 -10 30 2 12 7 10 9 -8 7 -12 0 -22 -5 -22 -9z"/>
<path d="M3890 1281 c0 -5 5 -13 10 -16 6 -3 10 -2 10 4 0 5 -4 13 -10 16 -5
3 -10 2 -10 -4z"/>
<path d="M47 1263 c-10 -9 -9 -23 1 -23 5 0 9 7 9 15 0 17 -1 18 -10 8z"/>
<path d="M51 1165 c-1 -11 -8 -29 -16 -39 -16 -21 -19 -106 -6 -139 7 -18 7
-18 27 0 19 17 20 23 8 108 -6 50 -12 81 -13 70z"/>
<path d="M1996 1161 c-3 -5 5 -8 19 -8 14 0 22 3 19 8 -3 5 -11 9 -19 9 -8 0
-16 -4 -19 -9z"/>
<path d="M208 875 c-10 -10 -121 -46 -147 -48 -19 -2 -27 -9 -29 -25 -3 -22
-2 -23 20 -11 13 7 56 24 97 38 41 14 76 32 79 39 4 12 -10 17 -20 7z"/>
<path d="M190 689 c-35 -10 -96 -32 -137 -52 -26 -12 -29 -40 -8 -77 19 -33
19 -67 -1 -78 -9 -5 -14 -18 -12 -33 2 -19 8 -24 28 -22 14 1 37 3 52 4 17 1
30 10 37 25 6 13 17 24 25 24 7 0 35 12 61 26 26 15 61 31 79 35 26 7 23 8
-13 4 -24 -3 -56 -12 -72 -20 -15 -8 -39 -15 -54 -15 -14 0 -25 -4 -25 -9 0
-11 -38 -21 -56 -14 -8 3 -19 23 -24 44 -10 35 -8 43 12 68 37 45 79 69 136
77 29 4 55 11 58 15 7 11 -41 10 -86 -2z"/>
<path d="M1148 603 c-16 -2 -28 -9 -28 -14 0 -6 4 -8 9 -4 14 8 315 -22 599
-60 68 -9 131 -15 140 -13 33 7 -266 60 -403 72 -27 2 -88 9 -135 15 -85 11
-130 12 -182 4z"/>
<path d="M3670 570 c-8 -6 -31 -14 -50 -20 -32 -9 -73 -50 -50 -50 5 0 10 -10
10 -22 0 -12 3 -18 7 -15 9 10 34 -14 26 -26 -4 -6 0 -8 10 -4 8 3 18 0 20 -8
7 -17 -2 -25 -29 -25 -16 0 -22 5 -18 14 3 7 -2 16 -11 20 -13 4 -15 1 -10
-14 3 -10 -1 -33 -10 -50 -15 -29 -15 -30 10 -42 27 -12 34 -47 13 -70 -7 -7
-19 -30 -26 -50 -11 -33 -11 -42 4 -74 10 -20 17 -42 17 -50 0 -8 4 -14 9 -14
5 0 8 -10 6 -22 -2 -15 4 -27 17 -33 16 -9 23 -7 38 11 21 27 22 35 3 28 -26
-10 -80 146 -55 161 32 20 69 -33 69 -99 0 -17 4 -37 9 -45 13 -20 31 18 31
64 0 28 5 37 24 45 13 5 29 17 35 27 10 17 10 17 11 1 0 -22 9 -23 38 -2 38
26 22 131 -25 165 -10 8 -24 36 -31 64 -7 27 -25 65 -40 84 -15 20 -29 41 -32
48 -3 8 -10 9 -20 3z m10 -246 c0 -8 -4 -12 -10 -9 -5 3 -10 10 -10 16 0 5 5
9 10 9 6 0 10 -7 10 -16z m109 -57 c1 -5 -3 -5 -9 -2 -5 3 -10 16 -9 28 0 21
1 21 9 2 5 -11 9 -24 9 -28z m-65 -42 c3 -22 2 -30 -2 -17 -4 13 -11 23 -17
23 -5 -1 -10 4 -9 9 1 6 2 20 3 33 2 32 18 3 25 -48z"/>
<path d="M3520 545 c0 -8 9 -13 20 -12 11 1 20 4 20 8 0 4 -9 9 -20 12 -13 3
-20 0 -20 -8z"/>
<path d="M955 510 c-3 -5 -1 -10 4 -10 6 0 11 5 11 10 0 6 -2 10 -4 10 -3 0
-8 -4 -11 -10z"/>
<path d="M1995 494 c118 -23 175 -31 175 -24 0 8 -176 40 -216 39 -16 0 2 -7
41 -15z"/>
<path d="M3403 497 c-18 -6 -33 -15 -33 -19 0 -11 9 -9 55 12 43 20 30 24 -22
7z"/>
<path d="M3338 473 c7 -3 16 -2 19 1 4 3 -2 6 -13 5 -11 0 -14 -3 -6 -6z"/>
<path d="M3298 463 c7 -3 16 -2 19 1 4 3 -2 6 -13 5 -11 0 -14 -3 -6 -6z"/>
<path d="M626 421 c-4 -7 -5 -15 -2 -18 9 -9 19 4 14 18 -4 11 -6 11 -12 0z"/>
<path d="M430 409 c-36 -4 -93 -11 -128 -15 -54 -6 -61 -8 -50 -22 11 -13 10
-14 -9 -8 -13 4 -24 2 -29 -5 -4 -7 -3 -9 4 -5 6 3 36 -5 68 -19 31 -14 59
-23 62 -20 3 3 0 5 -6 5 -7 0 -12 4 -12 8 0 5 7 9 15 9 8 0 15 -6 15 -14 0 -7
6 -13 14 -13 8 0 16 -4 18 -9 2 -6 17 -12 33 -15 17 -3 68 -18 115 -34 47 -16
127 -39 178 -52 l93 -23 -6 -66 c-3 -36 -8 -76 -11 -89 l-4 -22 1336 0 c1382
0 1412 1 1281 38 -26 7 -47 17 -47 21 0 5 -20 11 -45 14 -94 13 -375 143 -360
167 4 7 -11 16 -80 44 -22 10 -47 21 -57 26 -9 5 -40 12 -69 16 -49 7 -52 6
-46 -12 6 -15 2 -13 -14 5 -11 14 -28 26 -37 27 -9 1 -33 7 -52 13 -49 15 -49
15 -43 -27 l5 -39 -85 -17 c-47 -9 -131 -21 -188 -26 -147 -13 -282 -33 -564
-84 -295 -53 -585 -74 -585 -42 0 16 -8 18 -148 42 -51 8 -111 22 -134 30 -22
8 -57 14 -77 14 -72 0 -196 45 -207 75 -4 10 -18 13 -44 11 -30 -3 -37 0 -33
12 5 11 1 13 -18 8 l-24 -7 25 21 c14 11 20 19 13 18 -6 -2 -11 2 -12 7 -1 6
2 10 7 10 4 1 17 6 30 13 12 7 27 10 33 7 11 -7 39 12 39 26 0 10 -66 9 -160
-2z m-10 -73 c0 -3 -4 -8 -10 -11 -5 -3 -10 -1 -10 4 0 6 5 11 10 11 6 0 10
-2 10 -4z m17 -20 c-7 -13 -15 -22 -19 -20 -8 5 13 44 23 44 4 0 2 -11 -4 -24z
m2173 -16 c0 -11 -2 -20 -4 -20 -2 0 -6 9 -9 20 -3 11 -1 20 4 20 5 0 9 -9 9
-20z m190 -15 c0 -15 -35 -30 -50 -20 -20 12 -9 30 20 32 20 1 30 -2 30 -12z
m8 -37 c-6 -16 -34 -22 -56 -12 -14 6 -11 9 13 14 45 11 47 11 43 -2z m-1681
-124 c-3 -3 -12 -4 -19 -1 -8 3 -5 6 6 6 11 1 17 -2 13 -5z"/>
<path d="M4093 40 c0 -25 2 -35 4 -22 2 12 2 32 0 45 -2 12 -4 2 -4 -23z"/>
</g>
</svg>
